<svg fill="none" height="40" viewBox="0 0 40 40" width="40" xmlns="http://www.w3.org/2000/svg" xmlns:xlink="http://www.w3.org/1999/xlink"><linearGradient id="a"><stop offset=".3033" stop-color="#473788"/><stop offset=".872" stop-color="#2c2255"/></linearGradient><linearGradient id="b" gradientUnits="userSpaceOnUse" x1="1405.5" x2="1405.5" xlink:href="#a" y1="28546.3" y2="-4171.62"/><linearGradient id="c" gradientUnits="userSpaceOnUse" x1="1405.48" x2="1405.48" xlink:href="#a" y1="23493.9" y2="-9224.05"/><linearGradient id="d" gradientUnits="userSpaceOnUse" x1="1405.48" x2="1405.48" y1="5643.78" y2="-4360.65"><stop offset=".3033" stop-color="#473788"/><stop offset=".8631" stop-color="#2c2255"/></linearGradient><path d="m0 0h40v40h-40z" fill="#fff"/><path d="m33.5057 23.5897c-.5726 1.9493-1.6345 3.6969-3.1883 5.2404l-.0684.0684c-1.9402 1.9277-4.1997 3.0836-6.7761 3.4724-.6511.0982-1.3214.1497-2.0132.1497-3.4608 0-6.4203-1.229-8.8815-3.6905-1.5438-1.544-2.59831-3.2911-3.16657-5.2404zm.4837-2.9147c-.023.4644-.071.9182-.1406 1.3633l-.0239.148h-24.73009c-.07405-.4432-.12651-.8948-.15476-1.3569l-.00851-.1544zm-.165-2.9146c.0745.4434.1272.8951.1557 1.3569l.0086.1544h-25.05716c.02284-.4642.07038-.9179.13946-1.3632l.02381-.1481z" fill="#2c2255"/><path d="m33.5063 16.3568c-.5722-1.9547-1.6343-3.71-3.1889-5.2648-1.9504-1.95036-4.2262-3.12046-6.8246-3.51417-.6572-.09971-1.3341-.152-2.0331-.152-3.4608 0-6.4206 1.22239-8.8815 3.66617-1.5443 1.5548-2.59934 3.3101-3.16735 5.2648" fill="#2c2255"/><path d="m8.18641 19.9737c0-6.6192 4.97129-12.11904 11.43859-13.0864-.1605-.00589-.3217-.0123-.4837-.0123-7.2575 0-13.1413 5.8646-13.1413 13.0987 0 7.2344 5.8836 13.0988 13.1413 13.0988.1625 0 .3237-.0062.4847-.0121-6.4683-.9673-11.43959-6.4672-11.43959-13.0867z" fill="#f7941e"/><path d="m29.9872 19.2714c-.042-.518-.1292-1.0232-.2594-1.5112h-16.5352c-.1302.4877-.2176.9929-.2596 1.5112z" fill="url(#b)"/><path d="m29.9872 20.675h-17.054c.042.5181.1289 1.0233.2594 1.5113h16.5355c.1302-.488.2171-.9932.2591-1.5113z" fill="url(#c)"/><path d="m21.4602 28.5318c3.4339 0 6.3939-2.0232 7.757-4.9421h-15.514c1.3631 2.9189 4.3231 4.9421 7.757 4.9421z" fill="url(#d)"/><path d="m33.8215 22.186c-.0843.4778-.1948.9464-.3317 1.4037h-24.07817c-.13714-.4576-.23274-.9259-.31682-1.4034zm.1459-2.9146c.0138.2417.0228.4845.0228.7293 0 .2263-.0067.4511-.0185.6743h-25.04452c-.01179-.2232-.01846-.448-.01846-.6743 0-.2448.00898-.4876.02282-.729zm-.5596-2.9146c.1392.4573.2507.9261.3373 1.4036h-24.65029c.08638-.4778.17661-.9466.31604-1.4036z" fill="#fff"/></svg>