<svg fill="none" height="40" viewBox="0 0 40 40" width="40" xmlns="http://www.w3.org/2000/svg"><path d="m0 0h40v40h-40z" fill="#ff3034"/><g fill="#fff"><path d="m13.9001 28.3552c0 .4181-.124.8268-.3564 1.1745-.2323.3477-.5625.6186-.9488.7786-.3864.16-.8115.2019-1.2216.1203-.4101-.0815-.7869-.2829-1.0826-.5785-.29564-.2957-.497-.6724-.57858-1.0825s-.03971-.8352.12031-1.2215c.16003-.3862.43097-.7164.77867-.9487s.7565-.3563 1.1747-.3563c.2776 0 .5526.0547.8091.1609.2565.1063.4896.262.6859.4583s.3521.4294.4583.6858c.1063.2565.161.5314.161.8091z"/><path d="m32.3429 26.1554c-.674-4.6859-2.8476-9.0274-6.1954-12.3749s-7.6897-5.52082-12.376-6.19475c-1.12.59448-2.1534 1.33942-3.0714 2.21407v2.04268c4.6073.0038 9.025 1.8345 12.2843 5.0908 3.2592 3.2562 5.0938 7.672 5.1013 12.2789h2.0429c.8669-.9191 1.6112-1.9466 2.2143-3.0568z"/><path d="m34 19.7417c0-1.8106-.3578-3.6033-1.0529-5.2752s-1.7138-3.1899-2.9975-4.46685c-1.2837-1.27696-2.8072-2.28766-4.4828-2.97402-1.6756-.68637-3.4703-1.03485-5.2811-1.02544-.4857 0-.9571 0-1.4285.07142l-.3143.91419c3.3448 1.17203 6.3833 3.081 8.8907 5.5857s4.4195 5.541 5.595 8.8843l.9143-.3285c0-.4571.0857-.9142.0857-1.4284"/><path d="m20.3429 35.9973c-4.322 0-8.4681-1.7118-11.53094-4.761-3.06283-3.0491-4.79299-7.1873-4.81188-11.5089-.00653-2.147.4131-4.2739 1.2346-6.2576.82149-1.9836 2.0285-3.78454 3.5511-5.29839l.92857.87134c-1.415 1.40245-2.53816 3.07115-3.30465 4.90995s-1.16113 3.8112-1.16113 5.8033.39464 3.9645 1.16113 5.8033 1.88965 3.5076 3.30465 4.91c1.40255 1.4148 3.07145 2.5379 4.91045 3.3043 1.8389.7664 3.8115 1.161 5.8038 1.161s3.9649-.3946 5.8038-1.161c1.839-.7664 3.5079-1.8895 4.9105-3.3043l.8714.8713c-1.5377 1.5137-3.3621 2.7053-5.3662 3.5049-2.0042.7996-4.1478 1.1912-6.3052 1.1518z"/><path d="m20.1572 30.155c.1473-1.608-.1177-3.2271-.7701-4.7042s-1.6706-2.7636-2.9585-3.7378c-1.3798-1.0864-3.039-1.76-4.7857-1.9427-.2184-.0285-.4178-.1387-.5583-.3083s-.2115-.3861-.1988-.6059c.0089-.1122.0402-.2214.092-.3212.0518-.0999.123-.1884.2096-.2603.0865-.0719.1866-.1257.2943-.1583.1076-.0326.2208-.0434.3326-.0316 2.9484.3066 5.6555 1.768 7.5294 4.0646 1.8739 2.2967 2.7622 5.2417 2.4706 8.1914-.0588.6536-.1832 1.2997-.3714 1.9284l2.4857.6999c.7356-.2115 1.4524-.4838 2.1428-.8142.185-.965.2759-1.9457.2715-2.9283-.0043-3.7508-1.3503-7.3764-3.7947-10.2214-2.4445-2.8451-5.8262-4.7219-9.5339-5.2914-.8264-.1519-1.6735-.1519-2.5 0-1.04608.2764-1.98609.8582-2.69995 1.6713-.57554.6663-.97746 1.4646-1.17001 2.3237s-.16976 1.7525.06634 2.6007c.23611.8482.67821 1.6249 1.28698 2.2611.60877.6361 1.36533 1.1119 2.20244 1.3851.4428.1056.8911.1867 1.3428.2428 1.1669.199 2.2257.8043 2.9892 1.7088.7634.9046 1.1822 2.05 1.1822 3.2336 0 .9583-.2779 1.8961-.8 2.6998l1.7143 1.0998c.8402.2305 1.7019.3741 2.5714.4286.5125-1.0283.8321-2.1419.9429-3.2854"/></g></svg>