<svg width="40" height="40" viewBox="0 0 40 40" fill="none" xmlns="http://www.w3.org/2000/svg">
<rect width="40" height="40" fill="white"/>
<path d="M12.3999 28.3001L8.40013 25.3001C8.27542 25.2074 8.17422 25.0868 8.10472 24.9478C8.03522 24.8088 7.99935 24.6555 8.00001 24.5002V15.5001C7.99935 15.3447 8.03522 15.1914 8.10472 15.0524C8.17422 14.9135 8.27542 14.7928 8.40013 14.7002L12.3999 11.7002C12.2924 11.801 12.2112 11.9266 12.1633 12.066C12.1154 12.2054 12.1023 12.3544 12.125 12.5V27.5002C12.1023 27.6459 12.1154 27.7948 12.1633 27.9342C12.2112 28.0736 12.2924 28.1992 12.3999 28.3001Z" fill="white"/>
<path d="M31.5548 12.1652C31.39 12.0569 31.197 11.9995 30.9998 12.0002C30.8721 11.9991 30.7453 12.0233 30.627 12.0713C30.5085 12.1193 30.4008 12.1902 30.3098 12.2799L30.24 12.3501L22.2601 20.0001L17.8449 24.2351L13.76 28.1501L13.6899 28.2203C13.599 28.31 13.4913 28.381 13.3728 28.4292C13.2544 28.4772 13.1277 28.5014 12.9999 28.5003C12.7835 28.4999 12.5731 28.4297 12.3999 28.3001L8.40013 25.3001C8.60334 25.4527 8.85709 25.5222 9.10972 25.4943C9.36234 25.4664 9.59484 25.3433 9.75989 25.1501L14.1999 19.9952L17.8449 15.7652L24.23 8.34988C24.3226 8.24006 24.4383 8.15185 24.5687 8.09141C24.6991 8.03097 24.8411 7.99978 24.9849 8.00001C25.1821 7.99937 25.3751 8.05675 25.5398 8.16501L31.5548 12.1652Z" fill="white"/>
<path d="M31.5548 27.8351L25.5549 31.8352C25.3507 31.9685 25.1054 32.0237 24.8638 31.9907C24.6224 31.9576 24.4009 31.8385 24.2401 31.6552L17.8449 24.2351L14.1999 19.9952L9.75989 14.8449C9.59337 14.6536 9.36066 14.5324 9.10844 14.5055C8.85624 14.4787 8.60319 14.5482 8.40013 14.7002L12.3999 11.7002C12.5731 11.5706 12.7835 11.5004 12.9999 11.4999C13.1277 11.4988 13.2544 11.523 13.3728 11.5711C13.4913 11.6192 13.599 11.6902 13.6899 11.78L13.76 11.8502L17.8449 15.7652L22.2601 20.0001L30.24 27.6502L30.3098 27.7203C30.4008 27.8101 30.5085 27.8809 30.627 27.9289C30.7453 27.9769 30.8721 28.0012 30.9998 28.0001C31.197 28.0007 31.39 27.9434 31.5548 27.8351Z" fill="white"/>
<path d="M32 12.9999V27.0004C32.0001 27.1654 31.9596 27.3279 31.8819 27.4734C31.8043 27.6191 31.6919 27.7433 31.5548 27.8351L25.5549 31.8352C25.692 31.7434 25.8043 31.6191 25.882 31.4734C25.9595 31.3277 26.0001 31.1652 25.9999 31.0001V9.00016C25.9977 8.83387 25.9546 8.67069 25.8744 8.52504C25.7941 8.37938 25.6792 8.25572 25.5398 8.16501L31.5548 12.1652C31.6915 12.2573 31.8037 12.3817 31.8813 12.5272C31.9589 12.6727 31.9996 12.835 32 12.9999Z" fill="white"/>
<path d="M12.3999 28.3001L8.40013 25.3001C8.27542 25.2074 8.17422 25.0868 8.10472 24.9478C8.03522 24.8088 7.99935 24.6555 8.00001 24.5002V15.5001C7.99935 15.3447 8.03522 15.1914 8.10472 15.0524C8.17422 14.9135 8.27542 14.7928 8.40013 14.7002L12.3999 11.7002C12.2924 11.801 12.2112 11.9266 12.1633 12.066C12.1154 12.2054 12.1023 12.3544 12.125 12.5V27.5002C12.1023 27.6459 12.1154 27.7948 12.1633 27.9342C12.2112 28.0736 12.2924 28.1992 12.3999 28.3001Z" fill="#5E438F"/>
<path d="M31.5548 12.1652C31.39 12.0569 31.197 11.9995 30.9998 12.0002C30.8721 11.9991 30.7453 12.0233 30.627 12.0713C30.5085 12.1193 30.4008 12.1902 30.3098 12.2799L30.24 12.3501L22.2601 20.0001L17.8449 24.2351L13.76 28.1501L13.6899 28.2203C13.599 28.31 13.4913 28.381 13.3728 28.4292C13.2544 28.4772 13.1277 28.5014 12.9999 28.5003C12.7835 28.4999 12.5731 28.4297 12.3999 28.3001L8.40013 25.3001C8.60334 25.4527 8.85709 25.5222 9.10972 25.4943C9.36234 25.4664 9.59484 25.3433 9.75989 25.1501L14.1999 19.9952L17.8449 15.7652L24.23 8.34988C24.3226 8.24006 24.4383 8.15185 24.5687 8.09141C24.6991 8.03097 24.8411 7.99978 24.9849 8.00001C25.1821 7.99937 25.3751 8.05675 25.5398 8.16501L31.5548 12.1652Z" fill="url(#paint0_linear_393_3329)"/>
<path d="M31.5548 27.8351L25.5549 31.8352C25.3507 31.9685 25.1054 32.0237 24.8638 31.9907C24.6224 31.9576 24.4009 31.8385 24.2401 31.6552L17.8449 24.2351L14.1999 19.9952L9.75989 14.8449C9.59337 14.6536 9.36066 14.5324 9.10844 14.5055C8.85624 14.4787 8.60319 14.5482 8.40013 14.7002L12.3999 11.7002C12.5731 11.5706 12.7835 11.5004 12.9999 11.4999C13.1277 11.4988 13.2544 11.523 13.3728 11.5711C13.4913 11.6192 13.599 11.6902 13.6899 11.78L13.76 11.8502L17.8449 15.7652L22.2601 20.0001L30.24 27.6502L30.3098 27.7203C30.4008 27.8101 30.5085 27.8809 30.627 27.9289C30.7453 27.9769 30.8721 28.0012 30.9998 28.0001C31.197 28.0007 31.39 27.9434 31.5548 27.8351Z" fill="url(#paint1_linear_393_3329)"/>
<path d="M32 12.9999V27.0004C32.0001 27.1654 31.9596 27.3279 31.8819 27.4734C31.8043 27.6191 31.6919 27.7433 31.5548 27.8351L25.5549 31.8352C25.692 31.7434 25.8043 31.6191 25.882 31.4734C25.9595 31.3277 26.0001 31.1652 25.9999 31.0001V9.00016C25.9977 8.83387 25.9546 8.67069 25.8744 8.52504C25.7941 8.37938 25.6792 8.25572 25.5398 8.16501L31.5548 12.1652C31.6915 12.2573 31.8037 12.3817 31.8813 12.5272C31.9589 12.6727 31.9996 12.835 32 12.9999Z" fill="url(#paint2_linear_393_3329)"/>
<defs>
<linearGradient id="paint0_linear_393_3329" x1="27.7971" y1="8" x2="7.07095" y2="26.4689" gradientUnits="userSpaceOnUse">
<stop stop-color="#7252AA"/>
<stop offset="1" stop-color="#7252AA"/>
</linearGradient>
<linearGradient id="paint1_linear_393_3329" x1="9.9175" y1="9.02438" x2="29.6513" y2="28.5817" gradientUnits="userSpaceOnUse">
<stop stop-color="#AE7FE2"/>
<stop offset="1" stop-color="#9A70D4"/>
</linearGradient>
<linearGradient id="paint2_linear_393_3329" x1="28.6988" y1="7.68227" x2="28.6988" y2="31.815" gradientUnits="userSpaceOnUse">
<stop stop-color="#D59DFF"/>
<stop offset="1" stop-color="#C18EF1"/>
</linearGradient>
</defs>
</svg>
