<svg width="195" height="33" viewBox="0 0 195 33" fill="none" xmlns="http://www.w3.org/2000/svg">
<path d="M63.9767 5.96289C68.1085 5.96289 69.0248 6.62748 70.6054 8.5449L80.7368 20.9318C80.8805 21.1071 80.9618 21.158 81.1272 21.158V5.96289H85.0393L85.0366 26.274H80.8452C78.0772 26.2711 76.9277 26.0449 75.2441 23.9776L64.7928 11.1863C64.6518 11.0053 64.5623 10.9572 64.3997 10.9572V26.274H60.4875V5.96289H63.9767Z" fill="#2A289D"/>
<path d="M44.5944 8.85847H54.4981C54.9725 8.85847 55.3222 8.70859 55.5581 8.25044L56.7157 5.95972H42.5665C36.2713 5.95972 33.2078 8.34377 33.2078 13.2363V18.8443C33.2078 24.0564 36.3581 26.2708 42.5692 26.2708L54.8478 26.2736C55.3249 26.2736 55.672 26.1266 55.9078 25.6684L57.0655 23.3777H44.589C41.3221 23.3777 40.1536 22.2154 40.1536 19.9246V17.1616H53.0856C53.5627 17.1616 53.9098 17.0146 54.1456 16.5564L55.3033 14.2657H40.1563V12.583C40.1563 10.643 40.5765 8.85847 44.5944 8.85847Z" fill="#2A289D"/>
<path d="M100.837 8.85872H110.744C111.218 8.85872 111.568 8.70883 111.804 8.25069L112.961 5.95996H98.8121C92.5169 5.95996 89.4561 8.34401 89.4561 13.2365V18.8446C89.4561 24.0567 92.6064 26.271 98.8175 26.271L111.096 26.2739C111.571 26.2739 111.92 26.1268 112.156 25.6687L113.314 23.3779H100.837C97.5704 23.3779 96.4019 22.2156 96.4019 19.9249V17.1619H109.334C109.811 17.1619 110.158 17.0148 110.394 16.5567L111.552 14.266H96.4046V12.5833C96.3992 10.6432 96.8194 8.85872 100.837 8.85872Z" fill="#2A289D"/>
<path d="M129.248 19.3988C131.91 20.3151 132.726 20.7053 132.726 21.7602C132.726 22.6765 132.2 23.375 128.86 23.375H117.406C116.929 23.375 116.582 23.5221 116.346 23.9802L115.188 26.2709L131.411 26.2738C137.97 26.2738 140.42 24.1329 140.42 21.1635C140.42 19.444 139.485 17.1674 133.339 15.0634L126.86 12.8462C124.195 11.9299 123.381 11.5255 123.381 10.4678C123.381 9.62785 123.839 8.85296 127.245 8.85296L136.937 8.85579C137.414 8.85579 137.761 8.7059 137.997 8.24776L139.154 5.95703L124.696 5.95986C118.138 5.95986 115.687 8.09787 115.687 11.0673C115.687 12.7868 116.622 15.0775 122.768 17.1787L129.248 19.3988Z" fill="#2A289D"/>
<path d="M185.883 26.2739C192.441 26.2739 194.892 24.133 194.892 21.1636C194.892 19.4441 193.956 17.1675 187.81 15.0635L181.331 12.8491C178.666 11.9328 177.852 11.5284 177.852 10.4707C177.852 9.63078 178.378 8.85588 181.716 8.85588L191.408 8.85872C191.885 8.85872 192.232 8.70883 192.468 8.25069L193.625 5.95996L179.167 5.96279C172.612 5.96279 170.158 8.1008 170.158 11.0703C170.158 12.7897 171.094 15.0804 177.24 17.1817L183.719 19.3989C186.384 20.3152 187.197 20.7054 187.197 21.7603C187.197 22.6031 186.672 23.3751 183.334 23.3751H170.142L159.94 5.95996H156.069C153.051 5.95996 151.511 6.831 150.101 9.22919L140.119 26.2739H146.9L155.141 11.0731C155.342 10.7054 155.505 10.7111 155.673 10.7111L162.545 23.3751H155.076C154.602 23.3751 154.252 23.5222 154.016 23.9803L152.859 26.271L185.883 26.2739Z" fill="#2A289D"/>
<path d="M10.6058 15.8125H1.50195V25.3091H10.6058V15.8125Z" fill="#2A289D"/>
<path d="M30.4127 5.3715C31.4863 9.69277 27.8479 12.2804 24.3316 13.9971C23.399 14.4524 22.9409 14.8851 22.8893 15.4054C22.8324 15.9767 23.0574 16.695 23.765 17.764C26.8909 22.4756 33.2214 28.5728 39.8609 32.1786C40.0317 32.2719 39.9232 32.3483 39.8337 32.3992C39.6657 32.4925 39.4488 32.5491 39.0529 32.4416C29.0951 29.7606 18.9555 22.0881 15.507 16.7714C14.9648 15.9371 14.8292 15.3206 14.878 14.9049C14.935 14.4298 15.2576 14.0027 16.1902 13.5333C18.6139 12.3257 22.9571 9.66732 21.9025 6.43768C20.387 1.79684 11.7657 1.87037 4.9608 4.01121C3.52663 4.4637 1.9569 5.26404 0.547123 6.15204C0.411568 6.23689 0.0753912 6.30759 0.126902 5.9654C0.132324 5.92015 0.278724 4.96144 0.278724 4.96144C0.368191 4.48349 0.875167 4.09888 1.22761 3.91223C11.9663 -1.76085 28.8673 -0.850214 30.4127 5.3715Z" fill="#2A289D"/>
</svg>
