<svg fill="none" height="40" viewBox="0 0 40 40" width="40" xmlns="http://www.w3.org/2000/svg"><path d="m0 0h40v40h-40z" fill="#2a289d"/><g fill="#fff"><path d="m5.20497 26.6605h7.02493v-7.0389h-7.02493z"/><path d="m4.98472 10.8002c-.25709.1306-.65665.4263-.72306.7702 0 0-.12426.7305-.12426.7487-.04285.2657.21424.2025.32136.1361 1.09798-.647 2.31808-1.2341 3.43427-1.5758 5.25427-1.58749 11.92357-1.62927 13.08687 1.8039.8205 2.3802-2.5162 4.3652-4.3973 5.2511-.7263.3406-.9694.6652-1.0187 1.0112-.0407.3117.0664.7691.4853 1.3883 2.6383 3.957 10.4806 9.629 18.175 11.6139.3203.0857.4778.0568.6085-.0214.0718-.0407.1617-.0975.0236-.1671-5.1107-2.6855-9.9922-7.1888-12.4335-10.667-.5581-.8034-.7016-1.3401-.6652-1.7729.0353-.3738.3803-.7005 1.1151-1.0444 2.7294-1.2651 5.5124-3.1922 4.6812-6.3972-1.2116-4.60939-14.2567-5.28532-22.56918-1.0776z"/></g></svg>