<svg fill="none" height="40" viewBox="0 0 40 40" width="40" xmlns="http://www.w3.org/2000/svg" xmlns:xlink="http://www.w3.org/1999/xlink"><filter id="a" color-interpolation-filters="sRGB" filterUnits="userSpaceOnUse" height="24.3996" width="30.3057" x="4.91666" y="10.6836"><feFlood flood-opacity="0" result="BackgroundImageFix"/><feColorMatrix in="SourceAlpha" result="hardAlpha" type="matrix" values="0 0 0 0 0 0 0 0 0 0 0 0 0 0 0 0 0 0 127 0"/><feOffset/><feGaussianBlur stdDeviation="1.54167"/><feColorMatrix type="matrix" values="0 0 0 0 0 0 0 0 0 0 0 0 0 0 0 0 0 0 0.25 0"/><feBlend in2="BackgroundImageFix" mode="overlay" result="effect1_dropShadow_393_3336"/><feBlend in="SourceGraphic" in2="effect1_dropShadow_393_3336" mode="normal" result="shape"/></filter><filter id="b" color-interpolation-filters="sRGB" filterUnits="userSpaceOnUse" height="30.1667" width="13.7055" x="21.5168" y="4.91666"><feFlood flood-opacity="0" result="BackgroundImageFix"/><feColorMatrix in="SourceAlpha" result="hardAlpha" type="matrix" values="0 0 0 0 0 0 0 0 0 0 0 0 0 0 0 0 0 0 127 0"/><feOffset/><feGaussianBlur stdDeviation="1.54167"/><feColorMatrix type="matrix" values="0 0 0 0 0 0 0 0 0 0 0 0 0 0 0 0 0 0 0.25 0"/><feBlend in2="BackgroundImageFix" mode="overlay" result="effect1_dropShadow_393_3336"/><feBlend in="SourceGraphic" in2="effect1_dropShadow_393_3336" mode="normal" result="shape"/></filter><linearGradient id="c" gradientUnits="userSpaceOnUse" x1="20.0622" x2="20.0622" y1="8.00006" y2="32"><stop offset="0" stop-color="#fff"/><stop offset="1" stop-color="#fff" stop-opacity="0"/></linearGradient><path d="m0 0h40v40h-40z" fill="#fff"/><path d="m31.2853 10.5423-4.9707-2.39331c-.5753-.27702-1.2629-.16017-1.7145.29137l-16.27216 14.83644c-.43768.399-.43718 1.0881.00108 1.4865l1.32917 1.2084c.35831.3257.89791.3497 1.28371.057l19.5955-14.8655c.6574-.4987 1.6016-.0299 1.6016.7953v-.0577c0-.5792-.3318-1.1072-.8537-1.3585z" fill="#0065a9"/><g filter="url(#a)"><path d="m31.2853 29.4577-4.9707 2.3933c-.5753.2771-1.2629.1602-1.7145-.2914l-16.27216-14.8364c-.43768-.399-.43718-1.0881.00108-1.4865l1.32917-1.2084c.35831-.3257.89791-.3497 1.28371-.057l19.5955 14.8655c.6574.4987 1.6016.0299 1.6016-.7953v.0577c0 .5792-.3318 1.1072-.8537 1.3585z" fill="#007acc"/></g><g filter="url(#b)"><path d="m26.3149 31.8514c-.5756.2769-1.2631.1597-1.7147-.2919.5564.5565 1.5077.1624 1.5077-.6245v-21.87006c0-.78687-.9513-1.18094-1.5077-.62454.4516-.45158 1.1391-.5686 1.7147-.29182l4.9698 2.39002c.5222.2511.8543.7793.8543 1.3588v16.2052c0 .5795-.3321 1.1077-.8543 1.3589z" fill="#1f9cf0"/></g><path clip-rule="evenodd" d="m25.107 31.8975c.38.148.8132.1385 1.1967-.046l4.9668-2.39c.5219-.2511.8538-.7793.8538-1.3588v-16.2052c0-.5795-.3319-1.1077-.8538-1.3589l-4.9668-2.38996c-.5033-.24218-1.0923-.18286-1.534.13828-.0631.04587-.1232.09709-.1796.15354l-9.5084 8.67464-4.1416-3.1438c-.3856-.2927-.9248-.2687-1.28292.057l-1.32836 1.2083c-.438.3985-.4385 1.0875-.00108 1.4866l3.59176 3.2768-3.59176 3.2769c-.43742.3991-.43692 1.0881.00108 1.4865l1.32836 1.2084c.35812.3257.89732.3497 1.28292.057l4.1416-3.1438 9.5084 8.6746c.1504.1505.327.2639.5169.3379zm.9899-17.374-7.2146 5.4765 7.2146 5.4765z" fill="url(#c)" fill-rule="evenodd" opacity=".25"/></svg>