<svg fill="none" height="40" viewBox="0 0 40 40" width="40" xmlns="http://www.w3.org/2000/svg"><path d="m0 0h40v40h-40z" fill="#3cb4e6"/><g fill="#0f2241"><path d="m35.757 12h-23.2206c-.8331-.0008-1.6485.2393-2.3469.691s-1.24964 1.0956-1.58663 1.8533l-4.58397 10.9802c-.01549.0365-.02161.0762-.0178.1157.00381.0394.01743.0773.03962.1101.02219.0329.05227.0598.08752.0783.03524.0184.07455.0278.11438.0274h10.48508c.7407 0 1.0697-.7131.4889-1.2832l-3.8506-3.5859c-2.02383-1.9727-1.1556-6.5472 3.0476-6.5472h20.5271c.0503.0002.0993-.0152.1405-.044.0411-.0287.0723-.0695.0891-.1166l.8119-1.952c.012-.029.0181-.0601.0178-.0914-.0016-.063-.0278-.123-.0732-.167-.0454-.0441-.1064-.0687-.1698-.0687z"/><path d="m33.4428 17.5895h-3.9424c-.1263-.001-.2501.0352-.3556.1042s-.188.1676-.2371.2833l-4.4165 10.6075c-.0185.0339-.0281.0719-.0282.1105.0002.0313.0066.0623.0189.0912.0122.0289.0301.0551.0525.0771s.049.0394.0782.0513c.0292.0118.0604.0178.0919.0176h1.4712c.8463.0033 1.6748-.242 2.3814-.7051.7067-.4631 1.2601-1.1235 1.5907-1.8982l3.5098-8.4256c.0112-.0281.0172-.0581.0178-.0883-.0026-.06-.0281-.1167-.0714-.1586-.0432-.0419-.1009-.0658-.1612-.0669z"/><path d="m25.6942 17.8267c-.0002-.0315-.0066-.0627-.0189-.0917-.0124-.0291-.0303-.0555-.0529-.0776-.0225-.0222-.0493-.0397-.0786-.0516-.0294-.0119-.0609-.0179-.0926-.0177h-11.1769c-.606 0-1.1364.7366-.4948 1.3259l3.692 3.4194s1.4949 1.3702 1.1749 3.3311c-.2756 1.7266-1.4608 2.783-2.3246 3.1631-.0131.0052-.0239.015-.0305.0275-.0065.0124-.0083.0269-.0051.0406s.0113.0258.0227.0341.0255.0123.0396.0112h4.3039c.1264.0013.2502-.0349.3558-.1039.1055-.069.188-.1677.2369-.2836l4.4298-10.6428c.0131-.0261.0197-.0548.0193-.084z"/></g></svg>