<svg width="16" height="16" viewBox="0 0 16 16" fill="none" xmlns="http://www.w3.org/2000/svg">
<path d="M8 1C4.1325 1 1 4.21174 1 8.17704C1 11.3529 3.00375 14.0354 5.78625 14.9863C6.13625 15.0491 6.2675 14.8338 6.2675 14.6454C6.2675 14.4749 6.25875 13.9098 6.25875 13.3087C4.5 13.6406 4.045 12.8691 3.905 12.4654C3.82625 12.259 3.485 11.6221 3.1875 11.4516C2.9425 11.317 2.5925 10.9851 3.17875 10.9761C3.73 10.9672 4.12375 11.4965 4.255 11.7118C4.885 12.7973 5.89125 12.4923 6.29375 12.3039C6.355 11.8374 6.53875 11.5234 6.74 11.3439C5.1825 11.1645 3.555 10.5455 3.555 7.80027C3.555 7.01976 3.82625 6.37383 4.2725 5.87143C4.2025 5.692 3.9575 4.95636 4.3425 3.96951C4.3425 3.96951 4.92875 3.78111 6.2675 4.70516C6.8275 4.54368 7.4225 4.46293 8.0175 4.46293C8.6125 4.46293 9.2075 4.54368 9.7675 4.70516C11.1062 3.77214 11.6925 3.96951 11.6925 3.96951C12.0775 4.95636 11.8325 5.692 11.7625 5.87143C12.2087 6.37383 12.48 7.01079 12.48 7.80027C12.48 10.5545 10.8438 11.1645 9.28625 11.3439C9.54 11.5682 9.75875 11.9988 9.75875 12.6717C9.75875 13.6316 9.75 14.4032 9.75 14.6454C9.75 14.8338 9.88125 15.0581 10.2312 14.9863C11.6209 14.5053 12.8284 13.5896 13.6839 12.3681C14.5393 11.1466 14.9996 9.68085 15 8.17704C15 4.21174 11.8675 1 8 1Z" fill="#1F2222"/>
</svg>
