<svg
  fill="none"
  height="16"
  viewBox="0 0 16 16"
  width="16"
  xmlns="http://www.w3.org/2000/svg"
  xmlns:xlink="http://www.w3.org/1999/xlink">
  <mask id="a" height="14" maskUnits="userSpaceOnUse" width="14" x="1" y="1">
    <circle cx="8" cy="8" fill="none" r="6" stroke="#000" stroke-width="2" />
  </mask>
  <mask id="b" fill="#fff">
    <path
      d="m8 1c1.17164 0 2.3245.29409 3.353.8553 1.0285.56122 1.8997 1.37161 2.5336 2.3569.634.98528 1.0106 2.11395 1.0951 3.28253.0846 1.16858-.1255 2.33969-.611 3.40597-.4855 1.0663-1.2309 1.9937-2.1679 2.6972-.9369.7034-2.0355 1.1605-3.19489 1.3292-1.15943.1687-2.34265.0436-3.44122-.3636-1.09857-.4073-2.07734-1.0838-2.8466-1.9676l5.27991-4.5959z"
      fill="#fff" />
  </mask>
  <circle cx="8" cy="8" opacity=".24" r="6" stroke="#1f2222" stroke-width="2" />
  <g mask="url(#a)">
    <path
      d="m8 1c1.17164 0 2.3245.29409 3.353.8553 1.0285.56122 1.8997 1.37161 2.5336 2.3569.634.98528 1.0106 2.11395 1.0951 3.28253.0846 1.16858-.1255 2.33969-.611 3.40597-.4855 1.0663-1.2309 1.9937-2.1679 2.6972-.9369.7034-2.0355 1.1605-3.19489 1.3292-1.15943.1687-2.34265.0436-3.44122-.3636-1.09857-.4073-2.07734-1.0838-2.8466-1.9676l5.27991-4.5959z"
      fill="#1f2222"
      mask="url(#b)"
      stroke="#1f2222"
      stroke-width="4" />
  </g>
</svg>
