<svg width="16" height="16" viewBox="0 0 16 16" fill="none" xmlns="http://www.w3.org/2000/svg">
<circle cx="5" cy="10" r="1.5" transform="rotate(-90 5 10)" stroke="#1F2222"/>
<path fill-rule="evenodd" clip-rule="evenodd" d="M4.5 13.4965C4.5 13.7727 4.72386 13.9965 5 13.9965C5.27614 13.9965 5.5 13.7727 5.5 13.4965L5.5 11.9345C5.34019 11.9756 5.17265 11.9974 5 11.9974C4.82735 11.9974 4.65981 11.9756 4.5 11.9345L4.5 13.4965ZM4.5 8.06286C4.65981 8.02175 4.82735 7.99989 5 7.99989C5.17265 7.99989 5.34019 8.02175 5.5 8.06286L5.5 2.49652C5.5 2.22038 5.27614 1.99652 5 1.99652C4.72386 1.99652 4.5 2.22038 4.5 2.49652L4.5 8.06286Z" fill="#1F2222"/>
<circle cx="11" cy="5.99304" r="1.5" transform="rotate(90 11 5.99304)" stroke="#1F2222"/>
<path fill-rule="evenodd" clip-rule="evenodd" d="M11.5 2.49652C11.5 2.22038 11.2761 1.99652 11 1.99652C10.7239 1.99652 10.5 2.22038 10.5 2.49652L10.5 4.05856C10.6598 4.01746 10.8274 3.99559 11 3.99559C11.1726 3.99559 11.3402 4.01746 11.5 4.05856L11.5 2.49652ZM11.5 7.93018C11.3402 7.97129 11.1726 7.99315 11 7.99315C10.8274 7.99315 10.6598 7.97129 10.5 7.93018L10.5 13.4965C10.5 13.7727 10.7239 13.9965 11 13.9965C11.2761 13.9965 11.5 13.7727 11.5 13.4965L11.5 7.93018Z" fill="#1F2222"/>
</svg>
