<svg width="16" height="16" viewBox="0 0 16 16" fill="none" xmlns="http://www.w3.org/2000/svg">
<path d="M13.5 4V12C13.5 12.8284 12.8284 13.5 12 13.5H4C3.17157 13.5 2.5 12.8284 2.5 12V4C2.5 3.17145 3.17131 2.5 3.99961 2.5H8H12.0004C12.8287 2.5 13.5 3.17145 13.5 4Z" stroke="#1F2222"/>
<circle cx="6.5" cy="6" r="1" stroke="#1F2222"/>
<circle cx="9.5" cy="10" r="1" stroke="#1F2222"/>
<path fill-rule="evenodd" clip-rule="evenodd" d="M7.91465 6.5C7.96992 6.34361 8 6.17532 8 6C8 5.82468 7.96992 5.65639 7.91465 5.5H11.5C11.7761 5.5 12 5.72386 12 6C12 6.27614 11.7761 6.5 11.5 6.5H7.91465ZM5.08535 6.5H4.5C4.22386 6.5 4 6.27614 4 6C4 5.72386 4.22386 5.5 4.5 5.5H5.08535C5.03008 5.65639 5 5.82468 5 6C5 6.17532 5.03008 6.34361 5.08535 6.5ZM5.08535 6.5H7.91465C7.70873 7.0826 7.15311 7.5 6.5 7.5C5.84689 7.5 5.29127 7.0826 5.08535 6.5ZM5.08535 5.5C5.29127 4.9174 5.84689 4.5 6.5 4.5C7.15311 4.5 7.70873 4.9174 7.91465 5.5H5.08535Z" fill="#1F2222"/>
<path fill-rule="evenodd" clip-rule="evenodd" d="M10.9146 10.5C10.9699 10.3436 11 10.1753 11 10C11 9.82468 10.9699 9.65639 10.9146 9.5H11.5C11.7761 9.5 12 9.72386 12 10C12 10.2761 11.7761 10.5 11.5 10.5H10.9146ZM8.08535 10.5H4.5C4.22386 10.5 4 10.2761 4 10C4 9.72386 4.22386 9.5 4.5 9.5H8.08535C8.03008 9.65639 8 9.82468 8 10C8 10.1753 8.03008 10.3436 8.08535 10.5ZM8.08535 10.5H10.9146C10.7087 11.0826 10.1531 11.5 9.5 11.5C8.84689 11.5 8.29127 11.0826 8.08535 10.5ZM8.08535 9.5C8.29127 8.9174 8.84689 8.5 9.5 8.5C10.1531 8.5 10.7087 8.9174 10.9146 9.5H8.08535Z" fill="#1F2222"/>
</svg>
