<svg width="40" height="40" viewBox="0 0 40 40" fill="none" xmlns="http://www.w3.org/2000/svg">
<rect width="40" height="40" fill="white"/>
<path d="M15.2752 6H5V16.2752M15.2752 6L18.8715 12.6789V19.3578M15.2752 6V16.2752H5M18.8715 19.3578H12.1927L5 16.2752M18.8715 19.3578L15.1725 16.1725M15.2752 34H5V23.7248M15.2752 34L18.8715 27.3211V20.6422M15.2752 34V23.7248H5M18.8715 20.6422H12.1927L5 23.7248M18.8715 20.6422L15.1725 23.8275M24.0092 34H34.2844V23.7248M24.0092 34L20.4128 27.3211V20.6422M24.0092 34V23.7248H34.2844M20.4128 20.6422H27.0917L34.2844 23.7248M20.4128 20.6422L24.1119 23.8275M24.0092 6H34.2844V16.2752M24.0092 6L20.4128 12.6789V19.3578M24.0092 6V16.2752H34.2844M20.4128 19.3578H27.0917L34.2844 16.2752M20.4128 19.3578L24.1119 16.1725" stroke="white" stroke-width="0.25" stroke-linecap="round"/>
</svg>
