<svg width="40" height="40" viewBox="0 0 40 40" fill="none" xmlns="http://www.w3.org/2000/svg">
<rect width="40" height="40" fill="white"/>
<path d="M16.5828 29.2627L17.1933 29.8771L18.9463 31.5437L21.304 31.249L23.146 30.6964L23.6858 29.7882L25.0133 28.9372L25.1956 27.1789L25.7687 27.3091L26.5387 23.3745L25.7296 20.5234L24.1667 17.8143L23.1247 13.7507L23.4894 9.9996L20.103 9.32233L17.4981 9.9475L16.9772 11.2239C16.9772 11.2239 16.8079 12.3701 16.7948 12.4222C16.7818 12.4743 16.873 13.6204 16.873 13.6204L16.6516 15.4959L16.3124 17.8581L15.244 20.5473C15.244 20.5473 14.7283 23.1997 14.5441 23.1997C14.3599 23.1997 14.6473 24.4816 14.6473 24.4816L15.7529 27.1398L16.5828 29.2627Z" fill="white"/>
<path d="M19.3655 7.04903C17.4834 7.2847 16.1129 8.94937 16.2432 10.8418C16.2031 14.3585 16.5982 15.6222 15.0197 17.6373C13.4412 19.6524 12.4791 21.1366 12.0933 22.5754C11.8587 23.4784 11.7329 24.3817 11.7329 25.3147C11.7329 25.3147 11.6996 25.6964 12.0933 25.3407C12.4885 24.985 13.5964 25.1402 14.15 26.131C14.7036 27.1219 15.7274 28.6596 15.7274 28.6596L16.2432 29.3703L16.9536 29.1697C16.9536 29.1697 17.6663 28.6956 16.9536 27.668C16.5545 27.0782 16.0614 26.5587 15.4924 26.1304C15.4924 26.1304 13.8042 25.2672 13.518 24.2736C13.2405 22.5727 13.6996 20.8341 14.782 19.4927C15.5843 18.5447 14.6062 20.2523 14.3067 20.8752C13.6395 22.2641 13.5631 24.1356 13.5872 25.0598C13.6006 25.449 14.5786 25.6988 14.8186 25.8844C14.975 26.0052 14.2231 24.4759 14.3067 24.5892C14.6042 21.0497 16.1924 20.2616 17.1926 15.3836C16.4498 14.9733 16.5495 13.8751 17.3545 13.6057C16.9527 13.0921 16.8052 12.4237 16.9536 11.7885C17.1903 11.021 17.4668 10.9381 17.7724 10.91C18.0779 10.8819 18.8217 11.2143 18.7321 12.6972C19.0865 12.6564 19.4447 12.6564 19.799 12.6972C19.799 12.6972 19.5223 11.3145 20.5472 10.8405C21.1182 10.5616 21.8076 10.7679 22.1312 11.3145C22.5076 12.0487 22.4466 12.9311 21.9719 13.6057C22.5068 13.8458 22.6787 14.5199 22.3271 14.9884L23.1967 17.6353C23.1967 17.6353 24.3408 19.8871 24.893 21.1514C25.2226 21.8942 25.4491 22.6782 25.5668 23.482H26.1988C26.1988 23.482 27.2003 21.0538 24.893 18.7138C24.7366 18.5339 24.8462 18.6723 24.893 18.7138C24.9398 18.7552 27.2669 20.8827 26.712 23.6793C27.156 23.9936 28.5535 24.247 28.2921 25.7339C28.8196 25.8208 28.9659 25.7339 28.9659 25.7339C29.3256 24.2063 29.2017 22.6047 28.6107 21.1508C27.9602 19.5812 27.0217 18.1473 25.8436 16.9233C24.9591 15.9685 24.4772 14.7088 24.5 13.4072C24.6103 11.7552 24.3673 10.0985 23.7883 8.54729C23.3123 7.61215 22.3458 7.02949 21.2968 7.0456C20.6543 6.98275 20.0073 6.98476 19.3655 7.05229V7.04903Z" fill="black"/>
<path d="M16.8543 29.9845C16.8543 29.9845 19.0327 31.765 21.0825 30.9206C21.8641 30.6411 23.9481 29.4473 24.6736 29.0446C24.6736 29.0446 24.1174 31.7496 24.3889 32.1273C24.6603 32.5051 21.4256 31.7395 19.9635 31.7963C18.5013 31.8531 17.4796 31.9842 16.0943 32.0571C16.5276 31.4825 12.4208 26.9363 11.7616 25.4745C11.4908 24.8747 13.7282 25.1919 13.7282 25.1919L16.8543 29.9845Z" fill="black"/>
<path d="M12.7311 25.9584C11.8198 26.1102 11.9291 26.6223 11.548 26.9613C11.1669 27.3003 10.8055 27.2594 10.3937 27.5068C9.98184 27.7542 9.76919 28.1212 9.94971 28.9716C10.0806 29.4994 10.0218 30.0565 9.78387 30.5454C9.66085 30.9279 9.82409 31.5377 10.6431 31.5677C11.4114 31.5719 12.176 31.6778 12.9165 31.8826C14.1868 32.1748 14.9781 32.9798 15.8272 32.2838C16.0625 32.1232 16.2519 31.9037 16.3757 31.6471C16.4994 31.3905 16.5531 31.1058 16.5324 30.8216C16.3918 30.2284 16.0799 29.6897 15.6353 29.2726C15.0588 28.7286 14.5983 28.0733 14.2824 27.3463C14.0217 26.8456 13.6437 25.8066 12.7311 25.9584Z" fill="#F0B800"/>
<path d="M25.549 23.1504C25.7596 23.1504 26.1465 20.4414 26.1406 20.9064C26.7267 21.8962 26.6303 23.1053 26.6303 23.1053L26.5712 30.4006L24.7958 26.6596C24.7958 26.6596 25.7009 24.0484 25.549 23.1504Z" fill="black"/>
<path d="M30.0715 29.4396C29.9587 28.5764 29.6882 28.7575 29.3802 28.3869C29.0722 28.0163 29.2708 27.5585 29.0506 27.1629C28.8304 26.7674 28.8103 26.3868 28.0028 26.5304C27.1952 26.674 26.5445 27.8776 25.3424 27.0691C24.9289 26.7511 24.6604 25.881 24.6047 26.6528C24.599 27.5518 24.4875 28.4471 24.2725 29.3201C23.956 30.508 23.4162 31.1993 24.044 32.0231C24.1872 32.2501 24.3875 32.4354 24.6249 32.5605C24.8624 32.6856 25.1285 32.7461 25.3966 32.7359C25.9617 32.6243 26.4811 32.3482 26.8896 31.9422C27.4198 31.4177 28.0518 31.0074 28.7468 30.7367C29.2256 30.5081 30.1844 30.3029 30.0715 29.4396Z" fill="#F0B800"/>
<path d="M26.2359 23.9975C26.2359 23.9975 24.6455 23.6785 24.8661 25.0351C25.0867 26.3917 25.6248 26.653 25.6248 26.653C25.8148 26.7956 26.0453 26.8727 26.2829 26.8727C26.5205 26.8727 26.7523 26.7956 26.9424 26.653C27.3559 26.4074 27.7133 26.0776 27.9909 25.6849C27.9909 25.6849 28.405 24.9929 27.4503 24.4955C27.0785 24.2575 26.6678 24.0889 26.2359 23.9975Z" fill="black"/>
<path d="M18.0004 11.7451C18.2745 11.7451 18.4965 12.1208 18.4965 12.5841C18.4962 12.6878 18.4846 12.7912 18.4617 12.8923C18.2796 13.096 18.0499 13.2515 17.7931 13.345C17.6926 13.2467 17.6147 13.1278 17.5648 12.9964C17.515 12.865 17.4943 12.7243 17.5043 12.5841C17.5043 12.1208 17.7263 11.7451 18.0004 11.7451Z" fill="black"/>
<path d="M21.0518 11.6688C21.2635 11.6908 21.4581 11.7951 21.5936 11.9592C21.7292 12.1232 21.7949 12.334 21.7766 12.546C21.7615 12.8624 21.6303 13.162 21.4082 13.3877C21.3059 13.48 20.7583 13.2353 20.4869 13.0949C20.4 12.9258 20.3645 12.735 20.3846 12.546C20.3846 12.0613 20.652 11.6688 21.0518 11.6688Z" fill="black"/>
<path d="M18.4964 13.4079C18.1372 13.6212 17.7963 13.8642 17.4778 14.1345C17.4097 14.1847 17.3541 14.2502 17.3159 14.3257C17.2777 14.4012 17.2585 14.4845 17.2585 14.5691C17.2585 14.6537 17.2777 14.7371 17.3159 14.8126C17.3541 14.8881 17.4097 14.9536 17.4778 15.0037C17.8442 15.3623 18.243 15.6863 18.6687 15.9718C18.8449 16.1222 19.0645 16.2126 19.2955 16.2301C19.5265 16.2475 19.7569 16.1911 19.9537 16.0688C20.522 15.8201 21.5024 15.2665 21.5024 15.2665C21.5024 15.2665 22.5681 14.4087 21.5024 13.9246C20.4367 13.4406 20.6457 13.4819 19.9537 13.2185C19.7203 13.0982 19.4567 13.0518 19.1963 13.0856C18.9359 13.1194 18.6913 13.2319 18.4964 13.4079Z" fill="#F0B800"/>
</svg>
