<svg fill="none" height="40" viewBox="0 0 40 40" width="40" xmlns="http://www.w3.org/2000/svg"><path d="m0 0h40v40h-40z" fill="#00508d"/><path clip-rule="evenodd" d="m19.9747 22.5234c-1.2638 0-2.2749-1.0366-2.2749-2.3323s1.0111-2.3323 2.2749-2.3323c1.1627 0 2.1738.933 2.2244 2.125-.1012-4.5091-3.7915-8.0853-8.1896-7.9816-3.4376.1555-6.42024 2.4878-7.4313 5.9085-.10111 0-.20221 0-.30332 0-1.26382 0-2.27488 1.0365-2.27488 2.3323 0 1.2957 1.01106 2.3322 2.27488 2.3322h.30332c.9605 3.4726 4.0948 5.8567 7.684 5.8567 4.3981.0518 7.9369-3.5762 7.9874-8.0853-.0505 1.2439-1.0616 2.1768-2.2749 2.1768zm-6.8246 0c-1.2638 0-2.2749-1.0366-2.2243-2.3323.0505-1.2957 1.011-2.3323 2.2748-2.2804 1.2639 0 2.2244 1.0365 2.2244 2.3323 0 1.2438-1.0617 2.2804-2.2749 2.2804z" fill="#96c837" fill-rule="evenodd"/><g fill="#fff"><path d="m26.8499 17.9107c-1.2638 0-2.2749 1.0365-2.2243 2.3323 0 1.2957 1.0111 2.3322 2.2749 2.2804 1.2638 0 2.2243-1.0366 2.2749-2.3323-.0506-1.2439-1.0617-2.2804-2.3255-2.2804z"/><path d="m33.7251 17.9107c-1.2638 0-2.2749 1.0365-2.2749 2.3323 0 1.2957 1.0111 2.3322 2.2749 2.3322s2.2749-1.0365 2.2749-2.3322c0-1.2958-1.0111-2.3323-2.2749-2.3323z"/></g></svg>