<svg width="40" height="40" viewBox="0 0 40 40" fill="none" xmlns="http://www.w3.org/2000/svg">
<rect width="40" height="40" fill="white"/>
<path d="M20.882 6.36532C20.3949 5.87823 19.6051 5.87823 19.118 6.36532L13.2695 12.2139L18.3518 22.3289V10.9179C18.3518 10.1765 18.86 9.53177 19.5809 9.35861C20.3018 9.18546 21.0474 9.52904 21.3841 10.1895L24.7303 16.7532L27.0076 12.491L20.882 6.36532Z" fill="#3C34E3"/>
<path d="M29.3777 14.861L26.5058 20.2359L29.1311 25.3855L33.6347 20.882C34.1218 20.3949 34.1218 19.6051 33.6347 19.1181L29.3777 14.861Z" fill="#3C34E3"/>
<path d="M26.7467 27.7699L24.6635 23.6838L21.3698 29.8481C21.0875 30.3765 20.5343 30.7034 19.9353 30.6959C19.3363 30.6884 18.7915 30.3476 18.5225 29.8124L12.4273 17.6814L12.4273 26.9439L19.118 33.6347C19.6051 34.1218 20.3949 34.1218 20.882 33.6347L26.7467 27.7699Z" fill="#3C34E3"/>
<path d="M9.22002 23.7367V16.2634L6.36532 19.1181C5.87823 19.6051 5.87823 20.3949 6.36532 20.882L9.22002 23.7367Z" fill="#3C34E3"/>
<path d="M21.5591 17.5943L22.888 20.2011L21.5591 22.6883V17.5943Z" fill="#3C34E3"/>
<path fill-rule="evenodd" clip-rule="evenodd" d="M10.8321 29.8481C10.3893 29.8481 10.0303 29.4891 10.0303 29.0463V10.8718C10.0303 10.5002 10.2856 10.1773 10.6471 10.0916C11.0086 10.0059 11.3817 10.1798 11.5485 10.5118L19.1621 25.6646V10.8718C19.1621 10.5011 19.4162 10.1787 19.7766 10.0922C20.1371 10.0056 20.5099 10.1774 20.6782 10.5076L24.722 18.4397L28.9676 10.4939C29.1763 10.1034 29.6621 9.95592 30.0526 10.1646C30.4432 10.3733 30.5907 10.8591 30.382 11.2497L25.6098 20.1811L29.9437 28.6821C30.1448 29.0767 29.988 29.5595 29.5935 29.7607C29.199 29.9618 28.7161 29.805 28.515 29.4105L24.6887 21.905L20.6711 29.4242C20.5299 29.6884 20.2533 29.8518 19.9538 29.8481C19.6543 29.8443 19.3819 29.6739 19.2474 29.4063L11.6339 14.2535V29.0463C11.6339 29.4891 11.2749 29.8481 10.8321 29.8481ZM23.8009 20.1637L20.7657 14.21V25.8442L23.8009 20.1637Z" fill="black"/>
</svg>
