<svg fill="none" height="40" viewBox="0 0 40 40" width="40" xmlns="http://www.w3.org/2000/svg"><path d="m0 0h40v40h-40z" fill="#fbfbff"/><path d="m31.249 29.2619c.9747 0 1.7648-.7902 1.7648-1.7648 0-.9748-.7901-1.7649-1.7648-1.7649s-1.7648.7901-1.7648 1.7649c0 .9746.7901 1.7648 1.7648 1.7648z" fill="#002175"/><path d="m27.497 33c.9747 0 1.7649-.7902 1.7649-1.7649 0-.9746-.7902-1.7648-1.7649-1.7648s-1.7648.7902-1.7648 1.7648c0 .9747.7901 1.7649 1.7648 1.7649z" fill="#002175"/><path d="m12.5168 33c.9747 0 1.7648-.7902 1.7648-1.7649 0-.9746-.7901-1.7648-1.7648-1.7648s-1.7648.7902-1.7648 1.7648c0 .9747.7901 1.7649 1.7648 1.7649z" fill="#002175"/><path d="m8.76483 29.2619c.97469 0 1.76487-.7902 1.76487-1.7648 0-.9748-.79018-1.7649-1.76487-1.7649s-1.76483.7901-1.76483 1.7649c0 .9746.79014 1.7648 1.76483 1.7648z" fill="#ff6229"/><path d="m31.249 14.2817c.9747 0 1.7648-.7902 1.7648-1.7649s-.7901-1.7648-1.7648-1.7648-1.7648.7901-1.7648 1.7648.7901 1.7649 1.7648 1.7649z" fill="#002175"/><path d="m27.497 10.5297c.9747 0 1.7649-.79018 1.7649-1.76487s-.7902-1.76483-1.7649-1.76483-1.7648.79014-1.7648 1.76483.7901 1.76487 1.7648 1.76487z" fill="#ff6229"/><path d="m12.5168 10.5297c.9747 0 1.7648-.79018 1.7648-1.76487s-.7901-1.76483-1.7648-1.76483-1.7648.79014-1.7648 1.76483.7901 1.76487 1.7648 1.76487z" fill="#ff6229"/><path d="m8.76483 14.2817c.97469 0 1.76487-.7902 1.76487-1.7649s-.79018-1.7648-1.76487-1.7648-1.76483.7901-1.76483 1.7648.79014 1.7649 1.76483 1.7649z" fill="#ff6229"/><g fill="#002175"><path d="m31.249 21.7718c.9747 0 1.7648-.7902 1.7648-1.7648 0-.9747-.7901-1.7649-1.7648-1.7649s-1.7648.7902-1.7648 1.7649c0 .9746.7901 1.7648 1.7648 1.7648z"/><path d="m27.497 25.5098c.9747 0 1.7649-.79 1.7649-1.7648 0-.9747-.7902-1.7648-1.7649-1.7648s-1.7648.7901-1.7648 1.7648c0 .9748.7901 1.7648 1.7648 1.7648z"/><path d="m23.745 29.2619c.9747 0 1.7648-.7902 1.7648-1.7648 0-.9748-.7901-1.7649-1.7648-1.7649s-1.7648.7901-1.7648 1.7649c0 .9746.7901 1.7648 1.7648 1.7648z"/><path d="m20.007 33c.9747 0 1.7649-.7902 1.7649-1.7649 0-.9746-.7902-1.7648-1.7649-1.7648-.9746 0-1.7648.7902-1.7648 1.7648 0 .9747.7902 1.7649 1.7648 1.7649z"/><path d="m27.497 18.0197c.9747 0 1.7649-.7901 1.7649-1.7647 0-.9748-.7902-1.7649-1.7649-1.7649s-1.7648.7901-1.7648 1.7649c0 .9746.7901 1.7647 1.7648 1.7647z"/><path d="m23.745 21.7718c.9747 0 1.7648-.7902 1.7648-1.7648 0-.9747-.7901-1.7649-1.7648-1.7649s-1.7648.7902-1.7648 1.7649c0 .9746.7901 1.7648 1.7648 1.7648z"/><path d="m20.007 25.5098c.9747 0 1.7649-.79 1.7649-1.7648 0-.9747-.7902-1.7648-1.7649-1.7648-.9746 0-1.7648.7901-1.7648 1.7648 0 .9748.7902 1.7648 1.7648 1.7648z"/><path d="m16.2548 29.2619c.9747 0 1.7649-.7902 1.7649-1.7648 0-.9748-.7902-1.7649-1.7649-1.7649s-1.7648.7901-1.7648 1.7649c0 .9746.7901 1.7648 1.7648 1.7648z"/></g><path d="m23.745 14.2817c.9747 0 1.7648-.7902 1.7648-1.7649s-.7901-1.7648-1.7648-1.7648-1.7648.7901-1.7648 1.7648.7901 1.7649 1.7648 1.7649z" fill="#ff6229"/><path d="m20.007 18.0197c.9747 0 1.7649-.7901 1.7649-1.7647 0-.9748-.7902-1.7649-1.7649-1.7649-.9746 0-1.7648.7901-1.7648 1.7649 0 .9746.7902 1.7647 1.7648 1.7647z" fill="#ff6229"/><path d="m16.2548 21.7718c.9747 0 1.7649-.7902 1.7649-1.7648 0-.9747-.7902-1.7649-1.7649-1.7649s-1.7648.7902-1.7648 1.7649c0 .9746.7901 1.7648 1.7648 1.7648z" fill="#ff6229"/><path d="m12.5168 25.5098c.9747 0 1.7648-.79 1.7648-1.7648 0-.9747-.7901-1.7648-1.7648-1.7648s-1.7648.7901-1.7648 1.7648c0 .9748.7901 1.7648 1.7648 1.7648z" fill="#ff6229"/><path d="m20.007 10.5297c.9747 0 1.7649-.79018 1.7649-1.76487s-.7902-1.76483-1.7649-1.76483c-.9746 0-1.7648.79014-1.7648 1.76483s.7902 1.76487 1.7648 1.76487z" fill="#ff6229"/><path d="m16.2548 14.2817c.9747 0 1.7649-.7902 1.7649-1.7649s-.7902-1.7648-1.7649-1.7648-1.7648.7901-1.7648 1.7648.7901 1.7649 1.7648 1.7649z" fill="#ff6229"/><path d="m12.5168 18.0197c.9747 0 1.7648-.7901 1.7648-1.7647 0-.9748-.7901-1.7649-1.7648-1.7649s-1.7648.7901-1.7648 1.7649c0 .9746.7901 1.7647 1.7648 1.7647z" fill="#ff6229"/><path d="m8.76483 21.7718c.97469 0 1.76487-.7902 1.76487-1.7648 0-.9747-.79018-1.7649-1.76487-1.7649s-1.76483.7902-1.76483 1.7649c0 .9746.79014 1.7648 1.76483 1.7648z" fill="#ff6229"/></svg>